<?xml version="1.0" encoding="UTF-8"?>
<svg id="Logo" xmlns="http://www.w3.org/2000/svg" version="1.1" viewBox="0 0 450 450">
  <!-- Generator: Adobe Illustrator 29.4.0, SVG Export Plug-In . SVG Version: 2.1.0 Build 152)  -->
  <defs>
    <style>
      .st0 {
        fill: #2993b5;
      }

      .st1 {
        fill: #0a8754;
      }

      .st2 {
        fill: #fff;
      }

      .st3 {
        fill: #d10a49;
      }

      .st4 {
        fill: #ffbf00;
      }

      .st5 {
        display: none;
      }
    </style>
  </defs>
  <g id="Left_Triangle">
    <path class="st3" d="M219.38,142.49l-111.54,189.62c-9.84-13.92-25.63-23.35-43.67-24.59l112.02-190.44c9.59,14.13,25.22,23.83,43.18,25.41h0Z"/>
  </g>
  <g id="Right_Triangle">
    <path class="st3" d="M384.71,307.11c-13.19,1.17-26.04,6.79-36.14,16.89-2.66,2.66-5.01,5.51-7.04,8.51l-111.78-190.02c17.96-1.57,33.59-11.28,43.18-25.41l111.77,190.03h0Z"/>
  </g>
  <g id="Bottom_Triangle">
    <path class="st3" d="M337.08,390.37H113.16c3.47-7.46,5.39-15.77,5.39-24.54s-2.11-17.83-5.87-25.56h224.38c-7.5,15.81-7.5,34.29,0,50.1h0Z"/>
  </g>
  <g id="Top_Mask" class="st5">
    <path class="st2" d="M283.25,84.26c0,12.21-3.73,23.55-10.12,32.94-9.63,14.18-25.32,23.92-43.35,25.51-1.72.15-3.45.23-5.21.23s-3.49-.08-5.21-.23c-18.03-1.58-33.72-11.32-43.35-25.51-6.39-9.39-10.12-20.73-10.12-32.94,0-32.4,26.27-58.67,58.67-58.67s58.67,26.27,58.67,58.67h.02Z"/>
  </g>
  <g id="Left_Mask" class="st5">
    <path class="st2" d="M118.78,365.32c0,8.8-1.94,17.14-5.41,24.63-9.3,20.1-29.66,34.04-53.26,34.04-32.4,0-58.68-26.27-58.68-58.67s26.27-58.67,58.67-58.67c1.37,0,2.73.05,4.08.14,18.11,1.24,33.96,10.7,43.84,24.68,1.84,2.58,3.46,5.32,4.86,8.2,3.77,7.75,5.89,16.45,5.89,25.66h.01Z"/>
  </g>
  <g id="Right_Mask" class="st5">
    <path class="st2" d="M431.37,406.81c-22.92,22.92-60.07,22.92-82.97,0-4.9-4.9-8.74-10.44-11.54-16.35-7.53-15.88-7.53-34.43,0-50.29,1.27-2.68,2.77-5.3,4.48-7.8,2.04-3.01,4.4-5.88,7.07-8.54,10.13-10.13,23.04-15.79,36.28-16.96,16.7-1.48,33.91,4.17,46.7,16.96,22.92,22.91,22.92,60.06,0,82.97h-.02Z"/>
  </g>
  <path id="Right_Circle" class="st0" d="M389.89,415.43c13.29,0,26.03-5.28,35.43-14.67,9.39-9.39,14.67-22.13,14.67-35.43s-5.28-26.03-14.67-35.43c-9.39-9.39-22.13-14.67-35.43-14.67s-26.03,5.28-35.43,14.67c-9.4,9.39-14.67,22.13-14.67,35.43s5.28,26.03,14.67,35.43c9.39,9.39,22.13,14.67,35.43,14.67h0Z"/>
  <path id="Top_Circle" class="st4" d="M224.57,134.37c13.29,0,26.03-5.28,35.43-14.67,9.39-9.39,14.67-22.13,14.67-35.43s-5.28-26.03-14.67-35.43c-9.39-9.39-22.13-14.67-35.43-14.67s-26.03,5.28-35.43,14.67c-9.39,9.39-14.67,22.13-14.67,35.43s5.28,26.03,14.67,35.43c9.39,9.39,22.13,14.67,35.43,14.67h0Z"/>
  <path id="Left_Circle" class="st1" d="M60.11,415.43c13.29,0,26.03-5.28,35.43-14.67,9.39-9.39,14.67-22.13,14.67-35.43s-5.28-26.03-14.67-35.43c-9.39-9.39-22.13-14.67-35.43-14.67s-26.03,5.28-35.43,14.67c-9.39,9.39-14.67,22.13-14.67,35.43s5.28,26.03,14.67,35.43c9.39,9.39,22.13,14.67,35.43,14.67Z"/>
</svg>