<?xml version="1.0" encoding="UTF-8"?>
<svg id="Layer_1" xmlns="http://www.w3.org/2000/svg" version="1.1" viewBox="0 0 448.43 543.57">
  <!-- Generator: Adobe Illustrator 29.4.0, SVG Export Plug-In . SVG Version: 2.1.0 Build 152)  -->
  <defs>
    <style>
      .st0 {
        fill: #292f36;
      }

      .st1 {
        fill: #2993b5;
      }

      .st2 {
        fill: #0a8754;
      }

      .st3 {
        fill: #ff15ee;
      }

      .st4 {
        fill: #fff;
      }

      .st5 {
        fill: #d10a49;
      }

      .st6 {
        fill: #ffbf00;
      }

      .st7 {
        display: none;
      }
    </style>
  </defs>
  <g id="Logo">
    <g id="Left_Triangle">
      <path class="st5" d="M218.56,117.12l-111.97,190.35c-9.88-13.97-25.73-23.44-43.84-24.68l112.45-191.18c9.63,14.18,25.32,23.92,43.35,25.51h.01Z"/>
    </g>
    <g id="Right_Triangle">
      <path class="st5" d="M384.53,282.37c-13.24,1.17-26.14,6.82-36.28,16.96-2.67,2.67-5.03,5.53-7.07,8.54l-112.21-190.75c18.03-1.58,33.72-11.32,43.35-25.51l112.2,190.76h0Z"/>
    </g>
    <g id="Bottom_Triangle">
      <path class="st5" d="M336.71,365.96H111.93c3.48-7.49,5.41-15.83,5.41-24.63s-2.12-17.9-5.89-25.66h225.25c-7.53,15.87-7.53,34.42,0,50.29h0Z"/>
    </g>
    <g id="Top_Mask" class="st7">
      <path class="st4" d="M282.44,58.67c0,12.21-3.73,23.55-10.12,32.94-9.63,14.18-25.32,23.92-43.35,25.51-1.72.15-3.45.23-5.21.23s-3.49-.08-5.21-.23c-18.03-1.58-33.72-11.32-43.35-25.51-6.39-9.39-10.12-20.73-10.12-32.94,0-32.4,26.27-58.67,58.67-58.67s58.67,26.27,58.67,58.67h.02Z"/>
    </g>
    <g id="Left_Mask" class="st7">
      <path class="st4" d="M117.35,341.33c0,8.8-1.94,17.14-5.41,24.63-9.3,20.1-29.66,34.04-53.26,34.04-32.4,0-58.68-26.27-58.68-58.67s26.27-58.67,58.67-58.67c1.37,0,2.73.05,4.08.14,18.11,1.24,33.96,10.7,43.84,24.68,1.84,2.58,3.46,5.32,4.86,8.2,3.77,7.75,5.89,16.45,5.89,25.66h.01Z"/>
    </g>
    <g id="Right_Mask" class="st7">
      <path class="st4" d="M431.22,382.31c-22.92,22.92-60.07,22.92-82.97,0-4.9-4.9-8.74-10.44-11.54-16.35-7.53-15.88-7.53-34.43,0-50.29,1.27-2.68,2.77-5.3,4.48-7.8,2.04-3.01,4.4-5.88,7.07-8.54,10.13-10.13,23.04-15.79,36.28-16.96,16.7-1.48,33.91,4.17,46.7,16.96,22.92,22.91,22.92,60.06,0,82.97h-.02Z"/>
    </g>
    <path id="Right_Circle" class="st1" d="M389.73,391.11c13.34,0,26.13-5.3,35.57-14.73,9.43-9.43,14.73-22.22,14.73-35.57s-5.3-26.13-14.73-35.57c-9.43-9.43-22.22-14.73-35.57-14.73s-26.13,5.3-35.57,14.73c-9.44,9.43-14.73,22.22-14.73,35.57s5.3,26.13,14.73,35.57c9.43,9.43,22.22,14.73,35.57,14.73h0Z"/>
    <path id="Top_Circle" class="st6" d="M223.77,108.97c13.34,0,26.13-5.3,35.57-14.73,9.43-9.43,14.73-22.22,14.73-35.57s-5.3-26.13-14.73-35.57c-9.43-9.43-22.22-14.73-35.57-14.73s-26.13,5.3-35.57,14.73c-9.43,9.43-14.73,22.22-14.73,35.57s5.3,26.13,14.73,35.57c9.43,9.43,22.22,14.73,35.57,14.73h0Z"/>
    <path id="Left_Circle" class="st2" d="M58.67,391.11c13.34,0,26.13-5.3,35.57-14.73,9.43-9.43,14.73-22.22,14.73-35.57s-5.3-26.13-14.73-35.57c-9.43-9.43-22.22-14.73-35.57-14.73s-26.13,5.3-35.57,14.73c-9.43,9.43-14.73,22.22-14.73,35.57s5.3,26.13,14.73,35.57c9.43,9.43,22.22,14.73,35.57,14.73Z"/>
  </g>
  <g id="Rulers" class="st7">
    <rect class="st3" x="170" width="100" height="8.5"/>
    <rect class="st3" x="11.54" y="391.09" width="100" height="8.5"/>
    <rect class="st3" x="26.06" y="399.6" width="100" height="8.5"/>
    <rect class="st3" x="77.66" y="535.07" width="100" height="8.5"/>
  </g>
  <g id="Text">
    <g>
      <path class="st0" d="M56.06,409.37c10.86.15,22.52,1.56,31.8,7.86,7.54,5.12,11.01,14.7,11.12,23.44.06,4.54-.91,10.38-3.04,14.52-2.05,3.97-5,7.26-8.78,9.77-3.96,2.63-9.3,4.66-13.95,5.45-6.24,1.07-12.18,1.52-18.56,1.7h-10.91v36.4h-13.74v-96.74c3.87-.94,8.19-1.58,12.96-1.91,4.77-.33,9.19-.55,13.1-.5h0ZM57.2,421.41c-5.86,0-10.34.14-13.45.43v38.53h10.34c4.72,0,8.97-.31,12.75-.92,3.78-.61,6.96-1.65,9.56-3.12,2.6-1.46,4.61-3.47,6.02-6.02s2.12-5.81,2.12-9.77-.73-6.9-2.19-9.35-3.45-4.41-5.95-5.88c-2.5-1.46-5.41-2.48-8.71-3.04-3.3-.57-6.8-.85-10.48-.85h0Z"/>
      <path class="st0" d="M108.05,522.26c1.04.47,2.39.92,4.04,1.35s3.28.64,4.89.64c5.19,0,9.26-1.16,12.18-3.47,2.93-2.32,5.57-6.07,7.93-11.26-6.07-11.8-11.73-23.86-16.64-36.05-5.05-12.51-9.24-25.46-12.82-38.6h14.17c1.11,4.61,2.4,9.21,3.75,13.74,1.51,5.07,3.16,10.16,4.89,15.16,1.8,5.22,3.76,10.46,5.81,15.58,2.01,5.04,4.18,10.09,6.51,15.02,3.44-9.74,6.64-19.57,9.35-29.46s5.16-19.98,7.51-30.03h13.6c-3.37,13.47-7.06,26.9-11.33,40.02-3.94,12.1-8.48,24.11-13.45,35.91-1.89,4.25-3.85,7.91-5.88,10.98-2.03,3.07-4.27,5.59-6.73,7.58-2.46,1.98-5.22,3.45-8.29,4.39s-6.54,1.42-10.41,1.42c-1.04,0-2.12-.07-3.26-.21s-2.24-.33-3.33-.57c-1.08-.24-2.08-.5-2.97-.78-.9-.28-1.54-.52-1.91-.71.96-4.25,1.45-6.37,2.41-10.62h0Z"/>
      <path class="st0" d="M214,409.37c10.86.15,22.52,1.56,31.8,7.86,7.54,5.12,11.01,14.7,11.12,23.44.06,4.54-.91,10.38-3.04,14.52-2.05,3.97-5,7.26-8.78,9.77-3.96,2.63-9.3,4.66-13.95,5.45-6.24,1.07-12.18,1.52-18.56,1.7h-10.91v36.4h-13.74v-96.74c3.87-.94,8.19-1.58,12.96-1.91,4.77-.33,9.19-.55,13.1-.5h0ZM215.13,421.41c-5.86,0-10.34.14-13.45.43v38.53h10.34c4.72,0,8.97-.31,12.75-.92,3.78-.61,6.96-1.65,9.56-3.12,2.6-1.46,4.61-3.47,6.02-6.02s2.12-5.81,2.12-9.77-.73-6.9-2.19-9.35-3.45-4.41-5.95-5.88c-2.5-1.46-5.41-2.48-8.71-3.04-3.3-.57-6.8-.85-10.48-.85h0Z"/>
      <path class="st0" d="M296.86,498.75c9.48.26,21.64-3.04,21.53-14.73-.03-2.99-.64-5.59-1.91-7.72s-3-3.97-5.17-5.52c-2.17-1.56-4.65-2.9-7.44-4.04s-5.76-2.31-8.85-3.4c-3.54-1.25-6.99-2.62-10.2-4.18-3.21-1.56-6-3.4-8.36-5.52-2.36-2.12-4.23-4.65-5.59-7.58-1.37-2.92-2.07-6.49-2.05-10.62.04-7.44,2.68-15.39,8.78-20.11,7.15-5.54,15.79-7.17,24.22-7.22,5.25-.03,10.91.49,16.22,1.91,4.83,1.29,8.43,2.67,10.69,4.18-1.76,4.47-2.64,6.71-4.39,11.19-1.98-1.23-4.94-2.43-8.85-3.61-3.92-1.18-8.48-1.77-13.67-1.77-2.65,0-5.1.28-7.37.85-2.26.57-4.25,1.42-5.95,2.55-1.7,1.13-3.05,2.58-4.04,4.32-.99,1.75-1.49,3.8-1.49,6.16,0,2.65.52,4.87,1.56,6.66,1.04,1.79,2.5,3.37,4.39,4.75,1.89,1.37,4.08,2.62,6.59,3.75,2.5,1.13,5.31,2.24,8.29,3.4,4.22,1.64,8.15,3.4,11.69,5.1,3.54,1.7,6.61,3.73,9.21,6.09,2.6,2.36,4.61,5.17,6.02,8.43s2.03,7.29,2.12,11.83c.15,7.6-3.32,15.29-9.42,19.83-7.33,5.46-17.57,7.02-26.56,6.94-3.84-.04-7.44-.26-10.69-.78-3.26-.52-6.16-1.13-8.71-1.84s-4.75-1.47-6.59-2.26c-1.84-.8-3.28-1.49-4.32-2.05,1.64-4.53,2.47-6.8,4.11-11.33,2.17,1.23,5.5,2.59,9.91,4.11,5.26,1.81,10.85,2.12,16.29,2.26h.01Z"/>
      <path class="st0" d="M414.99,508.52c-1.61-4.25-3.12-8.43-4.53-12.53-1.42-4.11-2.88-8.29-4.39-12.53h-44.48c-2.97,8.36-5.95,16.71-8.92,25.07h-14.31c3.51-9.62,7.04-19.24,10.62-28.83,3.14-8.41,6.36-16.81,9.7-25.14,3.05-7.61,6.18-15.24,9.42-22.73,3.1-7.19,6.41-14.35,9.77-21.46h12.61c3.37,7.11,6.67,14.27,9.77,21.46,3.24,7.5,6.38,15.13,9.42,22.73,3.33,8.32,6.56,16.73,9.7,25.14,3.58,9.59,7.12,19.2,10.62,28.83h-15.02,0ZM402.1,472.12c-2.95-7.97-5.93-15.98-8.99-23.87-2.89-7.44-6.02-14.84-9.28-22.17-3.33,7.32-6.52,14.72-9.42,22.17-3.06,7.86-5.98,15.88-8.85,23.87h36.55Z"/>
    </g>
  </g>
</svg>