<?xml version="1.0" encoding="UTF-8"?>
<svg xmlns="http://www.w3.org/2000/svg" version="1.1" viewBox="0 0 1364.17 400">
  <!-- Generator: Adobe Illustrator 29.4.0, SVG Export Plug-In . SVG Version: 2.1.0 Build 152)  -->
  <defs>
    <style>
      .st0 {
        fill: #292f36;
      }

      .st1 {
        fill: #2993b5;
      }

      .st2 {
        fill: #0a8754;
      }

      .st3 {
        fill: #ff15ee;
      }

      .st4 {
        fill: #fff;
      }

      .st5 {
        fill: #d10a49;
      }

      .st6 {
        fill: #ffbf00;
      }

      .st7 {
        display: none;
      }

      .st8 {
        fill: #ff7ff2;
      }
    </style>
  </defs>
  <g id="Logo">
    <g id="Left_Triangle">
      <path class="st5" d="M218.56,117.12l-111.97,190.35c-9.88-13.97-25.73-23.44-43.84-24.68l112.45-191.18c9.63,14.18,25.32,23.92,43.35,25.51h.01Z"/>
    </g>
    <g id="Right_Triangle">
      <path class="st5" d="M384.53,282.37c-13.24,1.17-26.14,6.82-36.28,16.96-2.67,2.67-5.03,5.53-7.07,8.54l-112.21-190.75c18.03-1.58,33.72-11.32,43.35-25.51l112.2,190.76h0Z"/>
    </g>
    <g id="Bottom_Triangle">
      <path class="st5" d="M336.71,365.96H111.93c3.48-7.49,5.41-15.83,5.41-24.63s-2.12-17.9-5.89-25.66h225.25c-7.53,15.87-7.53,34.42,0,50.29h0Z"/>
    </g>
    <g id="Top_Mask" class="st7">
      <path class="st4" d="M282.44,58.67c0,12.21-3.73,23.55-10.12,32.94-9.63,14.18-25.32,23.92-43.35,25.51-1.72.15-3.45.23-5.21.23s-3.49-.08-5.21-.23c-18.03-1.58-33.72-11.32-43.35-25.51-6.39-9.39-10.12-20.73-10.12-32.94C165.08,26.27,191.35,0,223.75,0s58.67,26.27,58.67,58.67h.02Z"/>
    </g>
    <g id="Left_Mask" class="st7">
      <path class="st4" d="M117.35,341.33c0,8.8-1.94,17.14-5.41,24.63-9.3,20.1-29.66,34.04-53.26,34.04-32.4,0-58.68-26.27-58.68-58.67s26.27-58.67,58.67-58.67c1.37,0,2.73.05,4.08.14,18.11,1.24,33.96,10.7,43.84,24.68,1.84,2.58,3.46,5.32,4.86,8.2,3.77,7.75,5.89,16.45,5.89,25.66h.01Z"/>
    </g>
    <g id="Right_Mask" class="st7">
      <path class="st4" d="M431.22,382.31c-22.92,22.92-60.07,22.92-82.97,0-4.9-4.9-8.74-10.44-11.54-16.35-7.53-15.88-7.53-34.43,0-50.29,1.27-2.68,2.77-5.3,4.48-7.8,2.04-3.01,4.4-5.88,7.07-8.54,10.13-10.13,23.04-15.79,36.28-16.96,16.7-1.48,33.91,4.17,46.7,16.96,22.92,22.91,22.92,60.06,0,82.97h-.02Z"/>
    </g>
    <path id="Right_Circle" class="st1" d="M389.73,391.11c13.34,0,26.13-5.3,35.57-14.73,9.43-9.43,14.73-22.22,14.73-35.57s-5.3-26.13-14.73-35.57c-9.43-9.43-22.22-14.73-35.57-14.73s-26.13,5.3-35.57,14.73c-9.44,9.43-14.73,22.22-14.73,35.57s5.3,26.13,14.73,35.57c9.43,9.43,22.22,14.73,35.57,14.73h0Z"/>
    <path id="Top_Circle" class="st6" d="M223.77,108.97c13.34,0,26.13-5.3,35.57-14.73,9.43-9.43,14.73-22.22,14.73-35.57s-5.3-26.13-14.73-35.57c-9.43-9.43-22.22-14.73-35.57-14.73s-26.13,5.3-35.57,14.73c-9.43,9.43-14.73,22.22-14.73,35.57s5.3,26.13,14.73,35.57c9.43,9.43,22.22,14.73,35.57,14.73h0Z"/>
    <path id="Left_Circle" class="st2" d="M58.67,391.11c13.34,0,26.13-5.3,35.57-14.73,9.43-9.43,14.73-22.22,14.73-35.57s-5.3-26.13-14.73-35.57c-9.43-9.43-22.22-14.73-35.57-14.73s-26.13,5.3-35.57,14.73c-9.43,9.43-14.73,22.22-14.73,35.57s5.3,26.13,14.73,35.57c9.43,9.43,22.22,14.73,35.57,14.73Z"/>
  </g>
  <g id="Rulers" class="st7">
    <rect class="st3" x="448.43" width="100" height="400"/>
    <rect class="st8" x="548.43" y="100" width="200" height="200"/>
  </g>
  <g id="Text">
    <g>
      <path class="st0" d="M600.54,102.54c21.62.3,44.85,3.11,63.32,15.65,15.02,10.2,21.92,29.28,22.14,46.68.12,9.04-1.81,20.67-6.06,28.91-4.08,7.9-9.96,14.46-17.49,19.46-7.88,5.23-18.52,9.27-27.78,10.86-12.42,2.14-24.25,3.02-36.95,3.38h-21.72v72.49h-27.36V107.33c7.71-1.88,16.31-3.15,25.81-3.81,9.49-.66,18.3-1.1,26.09-.99ZM602.8,126.51c-11.66,0-20.59.28-26.79.85v76.72h20.59c9.4,0,17.86-.61,25.38-1.83,7.52-1.22,13.86-3.29,19.04-6.21,5.17-2.91,9.17-6.91,11.99-11.99,2.82-5.08,4.23-11.56,4.23-19.46s-1.46-13.73-4.37-18.62c-2.91-4.89-6.87-8.79-11.85-11.71-4.98-2.91-10.77-4.94-17.35-6.06-6.58-1.13-13.54-1.69-20.87-1.69Z"/>
      <path class="st0" d="M704.05,327.33c2.07.94,4.75,1.83,8.04,2.68,3.29.85,6.53,1.27,9.73,1.27,10.34,0,18.43-2.3,24.26-6.91,5.83-4.61,11.09-12.08,15.79-22.42-12.08-23.5-23.35-47.51-33.14-71.78-10.05-24.91-18.4-50.7-25.53-76.86h28.21c2.22,9.18,4.78,18.34,7.47,27.36,3.01,10.09,6.29,20.23,9.73,30.18,3.59,10.39,7.49,20.82,11.56,31.03,4.01,10.03,8.33,20.1,12.97,29.9,6.84-19.39,13.22-38.97,18.62-58.67,5.4-19.7,10.28-39.78,14.95-59.79h27.08c-6.71,26.82-14.06,53.56-22.56,79.68-7.85,24.1-16.88,48-26.79,71.5-3.76,8.46-7.66,15.75-11.71,21.86-4.04,6.11-8.51,11.14-13.4,15.09-4.89,3.95-10.39,6.86-16.5,8.74-6.11,1.88-13.02,2.82-20.73,2.82-2.07,0-4.23-.14-6.49-.42-2.26-.28-4.47-.66-6.63-1.13-2.16-.47-4.14-.99-5.92-1.55-1.79-.56-3.06-1.04-3.81-1.41,1.92-8.46,2.88-12.69,4.79-21.15Z"/>
      <path class="st0" d="M915.02,102.54c21.62.3,44.85,3.11,63.32,15.65,15.02,10.2,21.92,29.28,22.14,46.68.12,9.04-1.81,20.67-6.06,28.91-4.08,7.9-9.96,14.46-17.49,19.46-7.88,5.23-18.52,9.27-27.78,10.86-12.42,2.14-24.25,3.02-36.95,3.38h-21.72c0,24.16,0,48.32,0,72.49h-27.36c0-64.21,0-128.43,0-192.64,7.71-1.88,16.31-3.15,25.81-3.81,9.49-.66,18.3-1.1,26.09-.99ZM917.28,126.51c-11.66,0-20.59.28-26.79.85,0,25.57,0,51.15,0,76.72h20.59c9.4,0,17.86-.61,25.38-1.83,7.52-1.22,13.86-3.29,19.04-6.21,5.17-2.91,9.17-6.91,11.99-11.99,2.82-5.08,4.23-11.56,4.23-19.46s-1.46-13.73-4.37-18.62c-2.91-4.89-6.87-8.79-11.85-11.71-4.98-2.91-10.77-4.94-17.35-6.06-6.58-1.13-13.54-1.69-20.87-1.69Z"/>
      <path class="st0" d="M1080.02,280.51c18.88.51,43.09-6.06,42.87-29.33-.06-5.96-1.27-11.14-3.81-15.37-2.54-4.23-5.97-7.9-10.29-11-4.33-3.1-9.26-5.78-14.81-8.04-5.55-2.26-11.46-4.6-17.63-6.77-7.05-2.49-13.92-5.22-20.31-8.32-6.39-3.1-11.94-6.77-16.64-11-4.7-4.23-8.42-9.26-11.14-15.09-2.72-5.82-4.13-12.92-4.09-21.15.07-14.81,5.34-30.65,17.49-40.05,14.24-11.03,31.44-14.28,48.23-14.38,10.45-.06,21.73.98,32.29,3.81,9.62,2.57,16.78,5.31,21.29,8.32-3.5,8.91-5.25,13.37-8.74,22.28-3.95-2.44-9.83-4.84-17.63-7.19-7.8-2.35-16.88-3.53-27.22-3.53-5.27,0-10.15.56-14.67,1.69-4.51,1.13-8.46,2.82-11.85,5.08-3.38,2.26-6.07,5.13-8.04,8.6-1.97,3.48-2.96,7.57-2.96,12.27,0,5.27,1.04,9.69,3.1,13.26,2.07,3.57,4.98,6.72,8.74,9.45,3.76,2.72,8.13,5.22,13.12,7.47,4.98,2.26,10.57,4.47,16.5,6.77,8.4,3.26,16.22,6.77,23.27,10.15,7.05,3.38,13.16,7.43,18.33,12.13,5.17,4.7,9.17,10.29,11.99,16.78,2.82,6.49,4.05,14.52,4.23,23.55.3,15.14-6.62,30.45-18.76,39.49-14.6,10.87-34.99,13.98-52.88,13.82-7.64-.07-14.81-.52-21.29-1.55-6.49-1.03-12.27-2.26-17.35-3.67-5.08-1.41-9.45-2.92-13.12-4.51-3.66-1.6-6.54-2.96-8.6-4.09,3.27-9.03,4.91-13.54,8.18-22.56,4.32,2.45,10.95,5.15,19.74,8.18,10.47,3.6,21.61,4.22,32.44,4.51Z"/>
      <path class="st0" d="M1315.24,299.97c-3.2-8.46-6.21-16.78-9.03-24.96-2.82-8.18-5.74-16.5-8.74-24.96h-88.56c-5.92,16.64-11.85,33.28-17.77,49.92h-28.49c6.98-19.16,14.02-38.31,21.15-57.4,6.26-16.74,12.67-33.48,19.32-50.06,6.07-15.15,12.3-30.34,18.76-45.27,6.18-14.31,12.76-28.58,19.46-42.73h25.1c6.71,14.15,13.28,28.42,19.46,42.73,6.45,14.93,12.7,30.13,18.76,45.27,6.63,16.57,13.07,33.31,19.32,50.06,7.13,19.1,14.17,38.24,21.15,57.4h-29.9ZM1289.58,227.49c-5.88-15.88-11.8-31.82-17.91-47.53-5.76-14.81-11.99-29.55-18.47-44.14-6.64,14.57-12.98,29.31-18.76,44.14-6.09,15.66-11.91,31.62-17.63,47.53h72.77Z"/>
    </g>
  </g>
</svg>