<?xml version="1.0" encoding="UTF-8"?>
<svg id="Logo" xmlns="http://www.w3.org/2000/svg" version="1.1" viewBox="0 0 448.41 400">
  <!-- Generator: Adobe Illustrator 29.4.0, SVG Export Plug-In . SVG Version: 2.1.0 Build 152)  -->
  <defs>
    <style>
      .st0 {
        fill: #2993b5;
      }

      .st1 {
        fill: #0a8754;
      }

      .st2 {
        fill: #fff;
      }

      .st3 {
        fill: #d10a49;
      }

      .st4 {
        fill: #ffbf00;
      }

      .st5 {
        display: none;
      }
    </style>
  </defs>
  <g id="Left_Triangle">
    <path class="st3" d="M218.56,117.12l-111.97,190.35c-9.88-13.97-25.73-23.44-43.84-24.68l112.45-191.18c9.63,14.18,25.32,23.92,43.35,25.51h.01Z"/>
  </g>
  <g id="Right_Triangle">
    <path class="st3" d="M384.53,282.37c-13.24,1.17-26.14,6.82-36.28,16.96-2.67,2.67-5.03,5.53-7.07,8.54l-112.21-190.75c18.03-1.58,33.72-11.32,43.35-25.51l112.2,190.76h0Z"/>
  </g>
  <g id="Bottom_Triangle">
    <path class="st3" d="M336.71,365.96H111.93c3.48-7.49,5.41-15.83,5.41-24.63s-2.12-17.9-5.89-25.66h225.25c-7.53,15.87-7.53,34.42,0,50.29h0Z"/>
  </g>
  <g id="Top_Mask" class="st5">
    <path class="st2" d="M282.44,58.67c0,12.21-3.73,23.55-10.12,32.94-9.63,14.18-25.32,23.92-43.35,25.51-1.72.15-3.45.23-5.21.23s-3.49-.08-5.21-.23c-18.03-1.58-33.72-11.32-43.35-25.51-6.39-9.39-10.12-20.73-10.12-32.94,0-32.4,26.27-58.67,58.67-58.67s58.67,26.27,58.67,58.67h.02Z"/>
  </g>
  <g id="Left_Mask" class="st5">
    <path class="st2" d="M117.35,341.33c0,8.8-1.94,17.14-5.41,24.63-9.3,20.1-29.66,34.04-53.26,34.04C26.28,400,0,373.73,0,341.33s26.27-58.67,58.67-58.67c1.37,0,2.73.05,4.08.14,18.11,1.24,33.96,10.7,43.84,24.68,1.84,2.58,3.46,5.32,4.86,8.2,3.77,7.75,5.89,16.45,5.89,25.66h0Z"/>
  </g>
  <g id="Right_Mask" class="st5">
    <path class="st2" d="M431.22,382.31c-22.92,22.92-60.07,22.92-82.97,0-4.9-4.9-8.74-10.44-11.54-16.35-7.53-15.88-7.53-34.43,0-50.29,1.27-2.68,2.77-5.3,4.48-7.8,2.04-3.01,4.4-5.88,7.07-8.54,10.13-10.13,23.04-15.79,36.28-16.96,16.7-1.48,33.91,4.17,46.7,16.96,22.92,22.91,22.92,60.06,0,82.97h-.02Z"/>
  </g>
  <path id="Right_Circle" class="st0" d="M389.73,391.11c13.34,0,26.13-5.3,35.57-14.73,9.43-9.43,14.73-22.22,14.73-35.57s-5.3-26.13-14.73-35.57c-9.43-9.43-22.22-14.73-35.57-14.73s-26.13,5.3-35.57,14.73c-9.44,9.43-14.73,22.22-14.73,35.57s5.3,26.13,14.73,35.57c9.43,9.43,22.22,14.73,35.57,14.73h0Z"/>
  <path id="Top_Circle" class="st4" d="M223.77,108.97c13.34,0,26.13-5.3,35.57-14.73,9.43-9.43,14.73-22.22,14.73-35.57s-5.3-26.13-14.73-35.57c-9.43-9.43-22.22-14.73-35.57-14.73s-26.13,5.3-35.57,14.73c-9.43,9.43-14.73,22.22-14.73,35.57s5.3,26.13,14.73,35.57c9.43,9.43,22.22,14.73,35.57,14.73h0Z"/>
  <path id="Left_Circle" class="st1" d="M58.67,391.11c13.34,0,26.13-5.3,35.57-14.73,9.43-9.43,14.73-22.22,14.73-35.57s-5.3-26.13-14.73-35.57c-9.43-9.43-22.22-14.73-35.57-14.73s-26.13,5.3-35.57,14.73c-9.43,9.43-14.73,22.22-14.73,35.57s5.3,26.13,14.73,35.57c9.43,9.43,22.22,14.73,35.57,14.73Z"/>
</svg>