<?xml version="1.0" encoding="UTF-8"?>
<svg xmlns="http://www.w3.org/2000/svg" version="1.1" viewBox="0 0 1287 400">
  <!-- Generator: Adobe Illustrator 29.4.0, SVG Export Plug-In . SVG Version: 2.1.0 Build 152)  -->
  <defs>
    <style>
      .st0 {
        fill: #ff9ffd;
      }

      .st1 {
        fill: #292f36;
      }

      .st2 {
        fill: #2993b5;
      }

      .st3 {
        fill: #0a8754;
      }

      .st4 {
        fill: #ff15ee;
      }

      .st5 {
        fill: #d10a49;
      }

      .st6 {
        fill: #ffbf00;
      }

      .st7 {
        display: none;
      }

      .st8 {
        fill: #ff7ff2;
      }
    </style>
  </defs>
  <g id="Rulers" class="st7">
    <rect class="st4" x="440" width="95" height="400"/>
    <rect class="st8" x="535" y="105" width="700" height="190"/>
    <rect class="st0" y="336" width="10" height="10"/>
    <rect class="st0" x="219" width="10" height="9.37"/>
    <rect class="st0" x="55.57" y="390.83" width="10" height="9"/>
    <rect class="st0" x="1277" y="282" width="10" height="10"/>
  </g>
  <g id="Text">
    <g>
      <path class="st1" d="M583.31,107.36c20.12.28,41.75,2.89,58.94,14.57,13.98,9.49,20.4,27.25,20.61,43.45.11,8.41-1.68,19.24-5.64,26.91-3.8,7.35-9.27,13.46-16.28,18.11-7.33,4.87-17.24,8.63-25.86,10.11-11.56,1.99-22.57,2.81-34.39,3.15h-20.22v67.48h-25.47V111.82c7.18-1.75,15.18-2.93,24.02-3.55,8.83-.61,17.03-1.02,24.29-.92h0ZM585.41,129.67c-10.85,0-19.17.26-24.94.79v71.41h19.17c8.75,0,16.62-.57,23.62-1.7s12.9-3.06,17.72-5.78c4.81-2.71,8.54-6.43,11.16-11.16s3.94-10.76,3.94-18.11-1.36-12.78-4.07-17.33c-2.71-4.55-6.39-8.18-11.03-10.9-4.64-2.71-10.02-4.6-16.15-5.64-6.12-1.05-12.6-1.57-19.43-1.57h0Z"/>
      <path class="st1" d="M679.66,316.6c1.93.87,4.42,1.7,7.48,2.49s6.08,1.18,9.06,1.18c9.62,0,17.16-2.14,22.58-6.43,5.43-4.29,10.32-11.24,14.7-20.87-11.24-21.87-21.73-44.22-30.85-66.81-9.35-23.19-17.13-47.19-23.76-71.54h26.26c2.07,8.54,4.45,17.07,6.95,25.47,2.8,9.39,5.85,18.83,9.06,28.09,3.34,9.67,6.97,19.38,10.76,28.88,3.73,9.34,7.75,18.71,12.07,27.83,6.37-18.05,12.31-36.27,17.33-54.61,5.03-18.34,9.57-37.03,13.92-55.65h25.21c-6.25,24.96-13.09,49.85-21,74.17-7.31,22.43-15.71,44.68-24.94,66.55-3.5,7.87-7.13,14.66-10.9,20.35-3.76,5.69-7.92,10.37-12.47,14.05-4.55,3.68-9.67,6.39-15.36,8.14-5.69,1.75-12.12,2.62-19.3,2.62-1.93,0-3.94-.13-6.04-.39s-4.16-.61-6.17-1.05c-2.01-.44-3.85-.92-5.51-1.44-1.67-.52-2.85-.97-3.55-1.31,1.79-7.87,2.68-11.81,4.46-19.69v-.02Z"/>
      <path class="st1" d="M876.03,107.36c20.12.28,41.75,2.89,58.94,14.57,13.98,9.49,20.4,27.25,20.61,43.45.11,8.41-1.68,19.24-5.64,26.91-3.8,7.35-9.27,13.46-16.28,18.11-7.33,4.87-17.24,8.63-25.86,10.11-11.56,1.99-22.57,2.81-34.39,3.15h-20.22v67.48h-25.47V111.82c7.18-1.75,15.18-2.93,24.02-3.55,8.83-.61,17.03-1.02,24.29-.92h0ZM878.14,129.67c-10.85,0-19.17.26-24.94.79v71.41h19.17c8.75,0,16.62-.57,23.62-1.7s12.9-3.06,17.72-5.78c4.81-2.71,8.54-6.43,11.16-11.16s3.94-10.76,3.94-18.11-1.36-12.78-4.07-17.33-6.39-8.18-11.03-10.9c-4.64-2.71-10.02-4.6-16.15-5.64-6.12-1.05-12.6-1.57-19.43-1.57h0Z"/>
      <path class="st1" d="M1029.62,273.02c17.57.47,40.11-5.64,39.9-27.3-.06-5.55-1.18-10.37-3.55-14.31s-5.56-7.35-9.58-10.24c-4.03-2.89-8.62-5.38-13.79-7.48s-10.67-4.28-16.41-6.3c-6.56-2.32-12.96-4.86-18.91-7.74-5.95-2.89-11.11-6.3-15.49-10.24-4.37-3.94-7.84-8.62-10.37-14.05-2.53-5.42-3.84-12.03-3.81-19.69.07-13.79,4.97-28.53,16.28-37.28,13.25-10.27,29.26-13.29,44.89-13.39,9.73-.06,20.23.91,30.06,3.55,8.95,2.39,15.62,4.94,19.82,7.74-3.26,8.29-4.89,12.45-8.14,20.74-3.68-2.27-9.15-4.51-16.41-6.69-7.26-2.19-15.71-3.29-25.34-3.29-4.91,0-9.45.52-13.66,1.57-4.2,1.05-7.87,2.62-11.03,4.73-3.15,2.1-5.65,4.78-7.48,8.01-1.83,3.24-2.76,7.05-2.76,11.42,0,4.91.97,9.02,2.89,12.34,1.93,3.32,4.64,6.26,8.14,8.8,3.5,2.53,7.57,4.86,12.21,6.95,4.64,2.1,9.84,4.16,15.36,6.3,7.82,3.03,15.1,6.3,21.66,9.45,6.56,3.15,12.25,6.92,17.06,11.29,4.81,4.37,8.54,9.58,11.16,15.62,2.62,6.04,3.77,13.52,3.94,21.92.28,14.09-6.16,28.34-17.46,36.76-13.59,10.12-32.57,13.01-49.22,12.86-7.11-.07-13.79-.48-19.82-1.44-6.04-.96-11.42-2.1-16.15-3.42-4.73-1.31-8.8-2.72-12.21-4.2-3.41-1.49-6.09-2.76-8.01-3.81,3.04-8.41,4.57-12.6,7.61-21,4.02,2.28,10.19,4.79,18.37,7.61,9.75,3.35,20.12,3.93,30.2,4.2h.02Z"/>
      <path class="st1" d="M1248.57,291.13c-2.98-7.87-5.78-15.62-8.41-23.23-2.62-7.61-5.34-15.36-8.14-23.23h-82.43c-5.51,15.49-11.03,30.98-16.54,46.47h-26.52c6.5-17.83,13.05-35.66,19.69-53.43,5.83-15.58,11.79-31.16,17.98-46.6,5.65-14.1,11.45-28.24,17.46-42.14,5.75-13.32,11.88-26.6,18.11-39.77h23.36c6.25,13.17,12.36,26.45,18.11,39.77,6,13.9,11.82,28.05,17.46,42.14,6.17,15.42,12.17,31.01,17.98,46.6,6.64,17.78,13.19,35.59,19.69,53.43h-27.83,0ZM1224.68,223.66c-5.47-14.78-10.98-29.62-16.67-44.24-5.36-13.79-11.16-27.51-17.19-41.09-6.18,13.56-12.08,27.28-17.46,41.09-5.67,14.58-11.09,29.43-16.41,44.24h67.74Z"/>
    </g>
  </g>
  <g id="Logo">
    <g id="Left_Triangle">
      <path class="st5" d="M219.38,117.7l-111.54,189.62c-9.84-13.92-25.63-23.35-43.67-24.59l112.02-190.44c9.59,14.13,25.22,23.83,43.18,25.41h0Z"/>
    </g>
    <g id="Right_Triangle">
      <path class="st5" d="M384.71,282.31c-13.19,1.17-26.04,6.79-36.14,16.89-2.66,2.66-5.01,5.51-7.04,8.51l-111.78-190.02c17.96-1.57,33.59-11.28,43.18-25.41l111.77,190.03h0Z"/>
    </g>
    <g id="Bottom_Triangle">
      <path class="st5" d="M337.08,365.58H113.16c3.47-7.46,5.39-15.77,5.39-24.54s-2.11-17.83-5.87-25.56h224.38c-7.5,15.81-7.5,34.29,0,50.1h0Z"/>
    </g>
    <path id="Right_Circle" class="st2" d="M389.89,390.63c13.29,0,26.03-5.28,35.43-14.67,9.39-9.39,14.67-22.13,14.67-35.43s-5.28-26.03-14.67-35.43c-9.39-9.39-22.13-14.67-35.43-14.67s-26.03,5.28-35.43,14.67c-9.4,9.39-14.67,22.13-14.67,35.43s5.28,26.03,14.67,35.43c9.39,9.39,22.13,14.67,35.43,14.67h0Z"/>
    <path id="Top_Circle" class="st6" d="M224.57,109.58c13.29,0,26.03-5.28,35.43-14.67,9.39-9.39,14.67-22.13,14.67-35.43s-5.28-26.03-14.67-35.43c-9.39-9.39-22.13-14.67-35.43-14.67s-26.03,5.28-35.43,14.67c-9.39,9.39-14.67,22.13-14.67,35.43s5.28,26.03,14.67,35.43c9.39,9.39,22.13,14.67,35.43,14.67h0Z"/>
    <path id="Left_Circle" class="st3" d="M60.11,390.63c13.29,0,26.03-5.28,35.43-14.67,9.39-9.39,14.67-22.13,14.67-35.43s-5.28-26.03-14.67-35.43c-9.39-9.39-22.13-14.67-35.43-14.67s-26.03,5.28-35.43,14.67c-9.39,9.39-14.67,22.13-14.67,35.43s5.28,26.03,14.67,35.43c9.39,9.39,22.13,14.67,35.43,14.67Z"/>
  </g>
</svg>